<svg width="24" height="24" viewBox="0 0 24 24" fill="none" xmlns="http://www.w3.org/2000/svg">
<path fill-rule="evenodd" clip-rule="evenodd" d="M13.8903 4.80884L13.8489 4.78495L13.8489 4.78494C12.8122 4.18638 11.9764 3.70379 11.2666 3.39908C10.532 3.0837 9.84354 2.91789 9.11252 3.04058C8.87684 3.08014 8.64548 3.14213 8.42159 3.22571C7.72717 3.48497 7.21389 3.97278 6.73537 4.61322C6.44347 5.00388 6.14352 5.48107 5.8114 6.04071C6.19128 5.94284 6.58955 5.89078 6.99998 5.89078H7.67027C7.76187 5.75332 7.85027 5.62711 7.93699 5.51105C8.32977 4.98536 8.63083 4.74873 8.94624 4.63097C9.08057 4.58082 9.21938 4.54362 9.36079 4.51989C9.69282 4.46417 10.0719 4.51857 10.6749 4.77744C11.2194 5.01119 11.873 5.3778 12.7639 5.89078H15.7643L13.8903 4.80884Z" fill="#1F1F22" fill-opacity="1"/>
<path fill-rule="evenodd" clip-rule="evenodd" d="M7 5.89087C4.37665 5.89087 2.25 8.01752 2.25 10.6409V16.6409C2.25 19.2642 4.37665 21.3909 7 21.3909H17C19.5395 21.3909 21.6135 19.398 21.7435 16.8909H21.7497V16.6953C21.7499 16.6772 21.75 16.659 21.75 16.6409V10.6409C21.75 10.6227 21.7499 10.6046 21.7497 10.5865V10.3909H21.7435C21.6135 7.88373 19.5395 5.89087 17 5.89087H7ZM20.2405 10.3909C20.1129 8.71276 18.7108 7.39087 17 7.39087H7C5.20507 7.39087 3.75 8.84594 3.75 10.6409V16.6409C3.75 18.4358 5.20507 19.8909 7 19.8909H17C18.7108 19.8909 20.1129 18.569 20.2405 16.8909H16.5205C14.7256 16.8909 13.2705 15.4358 13.2705 13.6409C13.2705 11.8459 14.7256 10.3909 16.5205 10.3909H20.2405ZM14.7705 13.6409C14.7705 12.6744 15.554 11.8909 16.5205 11.8909H20.2497V15.3909H16.5205C15.554 15.3909 14.7705 14.6074 14.7705 13.6409Z" fill="#1F1F22" fill-opacity="1"/>
<circle cx="16.5016" cy="13.6407" r="0.75" fill="#1F1F22" fill-opacity="1"/>
</svg>
