<svg width="51" height="44" viewBox="0 0 51 44" fill="none" xmlns="http://www.w3.org/2000/svg">
<path d="M25.3359 30.3281C24.3984 30.3281 23.6016 30 22.9453 29.3438C22.2891 28.6719 21.9609 27.875 21.9609 26.9531C21.9609 26.0156 22.2891 25.2188 22.9453 24.5625C23.6016 23.8906 24.3984 23.5547 25.3359 23.5547C26.2734 23.5547 27.0703 23.8906 27.7266 24.5625C28.3828 25.2188 28.7109 26.0156 28.7109 26.9531C28.7109 27.875 28.3828 28.6719 27.7266 29.3438C27.0703 30 26.2734 30.3281 25.3359 30.3281ZM35.4844 26.9297C35.4844 28.8047 35.0234 30.5078 34.1016 32.0391C33.1953 33.5703 31.9766 34.7891 30.4453 35.6953C28.9141 36.6172 27.2109 37.0781 25.3359 37.0781C23.4766 37.0781 21.7734 36.6172 20.2266 35.6953C18.6953 34.7891 17.4766 33.5703 16.5703 32.0391C15.6641 30.5078 15.2109 28.8047 15.2109 26.9297C15.2109 25.0703 15.6641 23.375 16.5703 21.8438C17.4766 20.3125 18.6953 19.0938 20.2266 18.1875C21.7734 17.2656 23.4766 16.8047 25.3359 16.8047C27.2109 16.8047 28.9141 17.2656 30.4453 18.1875C31.9766 19.0938 33.1953 20.3125 34.1016 21.8438C35.0234 23.375 35.4844 25.0703 35.4844 26.9297ZM18.5859 26.9297C18.5859 28.1797 18.8906 29.3203 19.5 30.3516C20.1094 31.3672 20.9219 32.1797 21.9375 32.7891C22.9688 33.3984 24.1016 33.7031 25.3359 33.7031C26.5859 33.7031 27.7188 33.3984 28.7344 32.7891C29.7656 32.1797 30.5859 31.3672 31.1953 30.3516C31.8047 29.3203 32.1094 28.1797 32.1094 26.9297C32.1094 25.6953 31.8047 24.5703 31.1953 23.5547C30.5859 22.5234 29.7656 21.7031 28.7344 21.0938C27.7188 20.4844 26.5859 20.1797 25.3359 20.1797C24.1016 20.1797 22.9688 20.4844 21.9375 21.0938C20.9219 21.7031 20.1094 22.5234 19.5 23.5547C18.8906 24.5703 18.5859 25.6953 18.5859 26.9297ZM18.1875 5.36719L21.2812 7.66406C22.125 8.27344 22.7188 9.07031 23.0625 10.0547H33.7969V9.21094C33.7969 8.97656 33.875 8.78125 34.0312 8.625C34.2031 8.45313 34.4062 8.36719 34.6406 8.36719H43.0781C43.3125 8.36719 43.5078 8.45313 43.6641 8.625C43.8359 8.78125 43.9219 8.97656 43.9219 9.21094V10.0547H45.6094C47.0156 10.0547 48.2109 10.5469 49.1953 11.5312C50.1797 12.5156 50.6719 13.7109 50.6719 15.1172V38.7656C50.6719 40.1562 50.1797 41.3438 49.1953 42.3281C48.2109 43.3281 47.0156 43.8281 45.6094 43.8281H5.0625C3.67188 43.8281 2.47656 43.3281 1.47656 42.3281C0.492188 41.3438 0 40.1562 0 38.7656V15.1172C0 14.3672 0.15625 13.6562 0.46875 12.9844C0.234375 12.0312 0.273438 11.0703 0.585938 10.1016C0.898438 9.11719 1.49219 8.30469 2.36719 7.66406L5.46094 5.36719L7.75781 2.29688C8.42969 1.375 9.27344 0.765625 10.2891 0.46875C11.3203 0.15625 12.3438 0.15625 13.3594 0.46875C14.375 0.765625 15.2266 1.375 15.9141 2.29688L18.1875 5.36719ZM15.9844 7.94531C15.8594 7.85156 15.75 7.75 15.6562 7.64062C15.6406 7.625 15.625 7.60938 15.6094 7.59375L13.1953 4.28906C12.8516 3.83594 12.3906 3.60938 11.8125 3.60938C11.25 3.60938 10.8047 3.83594 10.4766 4.28906L8.03906 7.59375C7.92969 7.73438 7.8125 7.85156 7.6875 7.94531L4.38281 10.3828C3.92969 10.7109 3.70312 11.1641 3.70312 11.7422C3.70312 12.3047 3.92969 12.7578 4.38281 13.1016L7.6875 15.5156C7.6875 15.5312 7.69531 15.5391 7.71094 15.5391C7.83594 15.6484 7.94531 15.7656 8.03906 15.8906L10.4766 19.1719C10.8047 19.6406 11.25 19.875 11.8125 19.875C12.3906 19.875 12.8516 19.6406 13.1953 19.1719L15.6094 15.8906C15.7188 15.75 15.8438 15.625 15.9844 15.5156L19.2656 13.1016C19.7344 12.7578 19.9688 12.3047 19.9688 11.7422C19.9688 11.1641 19.7344 10.7109 19.2656 10.3828L15.9844 7.94531ZM13.5234 26.9297C13.5234 29.0859 14.0469 31.0625 15.0938 32.8594C16.1406 34.6406 17.5234 36.0469 19.2422 37.0781H3.375V38.7656C3.375 39.2344 3.53906 39.6328 3.86719 39.9609C4.19531 40.2891 4.59375 40.4531 5.0625 40.4531H45.6094C46.0781 40.4531 46.4766 40.2891 46.8047 39.9609C47.1328 39.6328 47.2969 39.2344 47.2969 38.7656V37.0781H31.4297C33.1484 36.0469 34.5312 34.6406 35.5781 32.8594C36.6406 31.0625 37.1719 29.0859 37.1719 26.9297C37.1719 24.7891 36.6406 22.8281 35.5781 21.0469C34.5312 19.25 33.1484 17.8359 31.4297 16.8047H47.2969V15.1172C47.2969 14.6484 47.1328 14.25 46.8047 13.9219C46.4766 13.5938 46.0781 13.4297 45.6094 13.4297H23.0625C22.7188 14.3984 22.125 15.1953 21.2812 15.8203L18.1875 18.0938L15.9141 21.1875C15.4766 21.7656 14.9531 22.2266 14.3438 22.5703C13.7969 23.9766 13.5234 25.4297 13.5234 26.9297Z" fill="black"/>
</svg>
