<svg width="40" height="40" viewBox="0 0 40 40" fill="none" xmlns="http://www.w3.org/2000/svg">
<rect width="40" height="40" rx="20" fill="url(#paint0_linear_14_31)"/>
<path d="M19.9609 27.2656C16.8555 27.2656 14.6289 25.5566 14.5703 23.0859H17.5391C17.5879 24.1406 18.6133 24.834 19.9805 24.8438C21.3867 24.834 22.3926 24.0527 22.3828 22.9102C22.3926 21.7578 21.3672 20.9473 19.707 20.9375H18.3984V18.7695H19.707C21.1035 18.7695 22.0801 18.0078 22.0703 16.8945C22.0801 15.8105 21.25 15.0684 20 15.0781C18.75 15.0684 17.7246 15.7715 17.6758 16.8555H14.8633C14.9121 14.4238 17.0996 12.7344 20 12.7344C22.9492 12.7344 24.9121 14.4824 24.9023 16.7188C24.9121 18.3008 23.8086 19.4238 22.2266 19.707V19.8242C24.3066 20.0781 25.4492 21.3379 25.4297 23.1055C25.4492 25.5273 23.1543 27.2656 19.9609 27.2656Z" fill="white"/>
<defs>
<linearGradient id="paint0_linear_14_31" x1="0" y1="0" x2="40" y2="40" gradientUnits="userSpaceOnUse">
<stop stop-color="#667EEA"/>
<stop offset="1" stop-color="#764BA2"/>
</linearGradient>
</defs>
</svg>
