<svg width="20" height="20" viewBox="0 0 20 20" fill="none" xmlns="http://www.w3.org/2000/svg">
<path fill-rule="evenodd" clip-rule="evenodd" d="M6.66669 1.66668C6.66669 1.20644 6.29359 0.833344 5.83335 0.833344C5.37312 0.833344 5.00002 1.20644 5.00002 1.66668V2.50001H4.16669C3.50365 2.50001 2.86776 2.7634 2.39892 3.23224C1.93008 3.70108 1.66669 4.33697 1.66669 5.00001V15.8333C1.66669 16.4964 1.93008 17.1323 2.39892 17.6011C2.86776 18.07 3.50365 18.3333 4.16669 18.3333H15.8334C16.4964 18.3333 17.1323 18.07 17.6011 17.6011C18.07 17.1323 18.3334 16.4964 18.3334 15.8333V5.00001C18.3334 4.33697 18.07 3.70108 17.6011 3.23224C17.1323 2.7634 16.4964 2.50001 15.8334 2.50001H15.4167C14.9564 2.50001 14.5834 2.87311 14.5834 3.33334C14.5834 3.79358 14.9564 4.16668 15.4167 4.16668H15.8334C16.0544 4.16668 16.2663 4.25447 16.4226 4.41075C16.5789 4.56703 16.6667 4.779 16.6667 5.00001V7.50001H3.33335V5.00001C3.33335 4.779 3.42115 4.56703 3.57743 4.41075C3.73371 4.25447 3.94567 4.16668 4.16669 4.16668H5.00002V5.00001C5.00002 5.46025 5.37312 5.83334 5.83335 5.83334C6.29359 5.83334 6.66669 5.46025 6.66669 5.00001V1.66668ZM3.57743 16.4226C3.42115 16.2663 3.33335 16.0544 3.33335 15.8333V9.16668H16.6667V15.8333C16.6667 16.0544 16.5789 16.2663 16.4226 16.4226C16.2663 16.5789 16.0544 16.6667 15.8334 16.6667H4.16669C3.94567 16.6667 3.73371 16.5789 3.57743 16.4226Z" fill="#1F1F22"/>
<path d="M13.3334 1.66668C13.3334 1.20644 12.9603 0.833344 12.5 0.833344C12.0398 0.833344 11.6667 1.20644 11.6667 1.66668V2.50001H8.75002C8.28978 2.50001 7.91669 2.87311 7.91669 3.33334C7.91669 3.79358 8.28978 4.16668 8.75002 4.16668H11.6667V5.00001C11.6667 5.46025 12.0398 5.83334 12.5 5.83334C12.9603 5.83334 13.3334 5.46025 13.3334 5.00001V1.66668Z" fill="#1F1F22"/>
</svg>
