<svg width="24" height="24" viewBox="0 0 24 24" fill="none" xmlns="http://www.w3.org/2000/svg">
<circle cx="12" cy="12" r="8" transform="rotate(90 12 12)" stroke="#222222" stroke-width="1.5"/>
<path d="M16.7936 18.572C15.9465 17.8483 15.2514 16.8869 14.7658 15.7672C14.2802 14.6475 14.018 13.4017 14.0009 12.1326C13.9838 10.8636 14.2123 9.60778 14.6674 8.4689C15.1226 7.33002 15.7914 6.34077 16.6186 5.58288" stroke="#222222" stroke-width="1.5"/>
<path d="M7.20637 18.572C8.05353 17.8483 8.74862 16.8869 9.23422 15.7672C9.71983 14.6475 9.98201 13.4017 9.99911 12.1326C10.0162 10.8636 9.78773 9.60778 9.33256 8.4689C8.87739 7.33002 8.20858 6.34077 7.38139 5.58288" stroke="#222222" stroke-width="1.5"/>
</svg>
